# xmcd
# 
# Track frame offsets:
#     150
#     16995
#     37716
#     56191
#     76674
#     95007
#     115156
#     137281
#     156092
#     177887
#     193328
#     219300
#     237412
#     266423
# 
# Disc length: 3787
# 
# Revision: 5
# Processed by: cddbd v1.5.2PL0 Copyright (c) Steve Scherf et al.
# Submitted via: fre:ac v1.1beta1pre5
# 
DISCID=b10ec90e
DTITLE=Térez Montcalm - Voodoo
DYEAR=2006
DGENRE=Jazz
TTITLE0=Love
TTITLE1=Growing stronger
TTITLE2=Sweet dreams
TTITLE3=Shattered
TTITLE4=Close your eyes
TTITLE5=Parce que y a toi...
TTITLE6=Voodoo child
TTITLE7=I want to be around
TTITLE8=For heaven's sake
TTITLE9=Douce lumière
TTITLE10=Sorry seems to be the hardest word
TTITLE11=How sweet it is
TTITLE12=Be anything
TTITLE13=Le cinéma
EXTD=
EXTT0=
EXTT1=
EXTT2=
EXTT3=
EXTT4=
EXTT5=
EXTT6=
EXTT7=
EXTT8=
EXTT9=
EXTT10=
EXTT11=
EXTT12=
EXTT13=
PLAYORDER=
